G04 #@! TF.FileFunction,Copper,L2,Bot,Signal*
%FSLAX46Y46*%
G04 Gerber Fmt 4.6, Leading zero omitted, Abs format (unit mm)*
G04 Created by KiCad (PCBNEW 4.0.5+dfsg1-4) date Thu Mar 22 11:03:11 2018*
%MOMM*%
%LPD*%
G01*
G04 APERTURE LIST*
%ADD10C,0.100000*%
%ADD11R,3.960000X3.960000*%
%ADD12R,1.270000X5.080000*%
%ADD13O,1.600000X1.600000*%
%ADD14C,1.524000*%
%ADD15C,0.600000*%
%ADD16C,0.250000*%
%ADD17C,0.254000*%
G04 APERTURE END LIST*
D10*
D11*
X134874000Y-96266000D03*
D12*
X123889000Y-96266000D03*
X145859000Y-96266000D03*
D13*
X122936000Y-84074000D03*
X125476000Y-84074000D03*
X128016000Y-84074000D03*
X130556000Y-84074000D03*
X130556000Y-76454000D03*
X128016000Y-76454000D03*
X125476000Y-76454000D03*
X122936000Y-76454000D03*
D14*
X147828000Y-79248000D03*
X147828000Y-76708000D03*
D15*
X122428000Y-102616000D03*
X142494000Y-97790000D03*
X142494000Y-93726000D03*
X122174000Y-91186000D03*
X129032000Y-93472000D03*
X134112000Y-83058000D03*
D16*
X145785000Y-97300000D02*
X145524000Y-97300000D01*
X145524000Y-97300000D02*
X138430000Y-104394000D01*
X138430000Y-104394000D02*
X131064000Y-104394000D01*
X131064000Y-104394000D02*
X128016000Y-101346000D01*
X128016000Y-101346000D02*
X128016000Y-94488000D01*
X123815000Y-97300000D02*
X125204000Y-97300000D01*
X125204000Y-97300000D02*
X128016000Y-94488000D01*
X128016000Y-94488000D02*
X129032000Y-93472000D01*
X130556000Y-79502000D02*
X130556000Y-76454000D01*
X134112000Y-83058000D02*
X130556000Y-79502000D01*
D17*
G36*
X148717000Y-75639392D02*
X148628607Y-75727785D01*
X148559143Y-75485603D01*
X148035698Y-75298856D01*
X147480632Y-75326638D01*
X147096857Y-75485603D01*
X147027392Y-75727787D01*
X147828000Y-76528395D01*
X147842143Y-76514253D01*
X148021748Y-76693858D01*
X148007605Y-76708000D01*
X148021748Y-76722143D01*
X147842143Y-76901748D01*
X147828000Y-76887605D01*
X147027392Y-77688213D01*
X147096857Y-77930397D01*
X147237318Y-77980509D01*
X147037697Y-78062990D01*
X146644371Y-78455630D01*
X146431243Y-78968900D01*
X146430758Y-79524661D01*
X146642990Y-80038303D01*
X147035630Y-80431629D01*
X147548900Y-80644757D01*
X148104661Y-80645242D01*
X148618303Y-80433010D01*
X148717000Y-80334485D01*
X148717000Y-108077000D01*
X121031000Y-108077000D01*
X121031000Y-93726000D01*
X122606560Y-93726000D01*
X122606560Y-98806000D01*
X122650838Y-99041317D01*
X122789910Y-99257441D01*
X123002110Y-99402431D01*
X123254000Y-99453440D01*
X124524000Y-99453440D01*
X124759317Y-99409162D01*
X124975441Y-99270090D01*
X125120431Y-99057890D01*
X125171440Y-98806000D01*
X125171440Y-98060000D01*
X125204000Y-98060000D01*
X125494839Y-98002148D01*
X125741401Y-97837401D01*
X127256000Y-96322802D01*
X127256000Y-101346000D01*
X127313852Y-101636839D01*
X127478599Y-101883401D01*
X130526599Y-104931401D01*
X130773161Y-105096148D01*
X131064000Y-105154000D01*
X138430000Y-105154000D01*
X138720839Y-105096148D01*
X138967401Y-104931401D01*
X144713494Y-99185308D01*
X144759910Y-99257441D01*
X144972110Y-99402431D01*
X145224000Y-99453440D01*
X146494000Y-99453440D01*
X146729317Y-99409162D01*
X146945441Y-99270090D01*
X147090431Y-99057890D01*
X147141440Y-98806000D01*
X147141440Y-93726000D01*
X147097162Y-93490683D01*
X146958090Y-93274559D01*
X146745890Y-93129569D01*
X146494000Y-93078560D01*
X145224000Y-93078560D01*
X144988683Y-93122838D01*
X144772559Y-93261910D01*
X144627569Y-93474110D01*
X144576560Y-93726000D01*
X144576560Y-97172638D01*
X138115198Y-103634000D01*
X131378802Y-103634000D01*
X128776000Y-101031198D01*
X128776000Y-96551750D01*
X132259000Y-96551750D01*
X132259000Y-98372310D01*
X132355673Y-98605699D01*
X132534302Y-98784327D01*
X132767691Y-98881000D01*
X134588250Y-98881000D01*
X134747000Y-98722250D01*
X134747000Y-96393000D01*
X135001000Y-96393000D01*
X135001000Y-98722250D01*
X135159750Y-98881000D01*
X136980309Y-98881000D01*
X137213698Y-98784327D01*
X137392327Y-98605699D01*
X137489000Y-98372310D01*
X137489000Y-96551750D01*
X137330250Y-96393000D01*
X135001000Y-96393000D01*
X134747000Y-96393000D01*
X132417750Y-96393000D01*
X132259000Y-96551750D01*
X128776000Y-96551750D01*
X128776000Y-94802802D01*
X129171680Y-94407122D01*
X129217167Y-94407162D01*
X129560943Y-94265117D01*
X129666554Y-94159690D01*
X132259000Y-94159690D01*
X132259000Y-95980250D01*
X132417750Y-96139000D01*
X134747000Y-96139000D01*
X134747000Y-93809750D01*
X135001000Y-93809750D01*
X135001000Y-96139000D01*
X137330250Y-96139000D01*
X137489000Y-95980250D01*
X137489000Y-94159690D01*
X137392327Y-93926301D01*
X137213698Y-93747673D01*
X136980309Y-93651000D01*
X135159750Y-93651000D01*
X135001000Y-93809750D01*
X134747000Y-93809750D01*
X134588250Y-93651000D01*
X132767691Y-93651000D01*
X132534302Y-93747673D01*
X132355673Y-93926301D01*
X132259000Y-94159690D01*
X129666554Y-94159690D01*
X129824192Y-94002327D01*
X129966838Y-93658799D01*
X129967162Y-93286833D01*
X129825117Y-92943057D01*
X129562327Y-92679808D01*
X129218799Y-92537162D01*
X128846833Y-92536838D01*
X128503057Y-92678883D01*
X128239808Y-92941673D01*
X128097162Y-93285201D01*
X128097121Y-93332077D01*
X125171440Y-96257758D01*
X125171440Y-93726000D01*
X125127162Y-93490683D01*
X124988090Y-93274559D01*
X124775890Y-93129569D01*
X124524000Y-93078560D01*
X123254000Y-93078560D01*
X123018683Y-93122838D01*
X122802559Y-93261910D01*
X122657569Y-93474110D01*
X122606560Y-93726000D01*
X121031000Y-93726000D01*
X121031000Y-84045887D01*
X121501000Y-84045887D01*
X121501000Y-84102113D01*
X121610233Y-84651264D01*
X121921302Y-85116811D01*
X122386849Y-85427880D01*
X122936000Y-85537113D01*
X123485151Y-85427880D01*
X123950698Y-85116811D01*
X124206000Y-84734725D01*
X124461302Y-85116811D01*
X124926849Y-85427880D01*
X125476000Y-85537113D01*
X126025151Y-85427880D01*
X126490698Y-85116811D01*
X126746000Y-84734725D01*
X127001302Y-85116811D01*
X127466849Y-85427880D01*
X128016000Y-85537113D01*
X128565151Y-85427880D01*
X129030698Y-85116811D01*
X129300986Y-84712297D01*
X129403611Y-84929134D01*
X129818577Y-85305041D01*
X130206961Y-85465904D01*
X130429000Y-85343915D01*
X130429000Y-84201000D01*
X130683000Y-84201000D01*
X130683000Y-85343915D01*
X130905039Y-85465904D01*
X131293423Y-85305041D01*
X131708389Y-84929134D01*
X131947914Y-84423041D01*
X131826629Y-84201000D01*
X130683000Y-84201000D01*
X130429000Y-84201000D01*
X130409000Y-84201000D01*
X130409000Y-83947000D01*
X130429000Y-83947000D01*
X130429000Y-82804085D01*
X130683000Y-82804085D01*
X130683000Y-83947000D01*
X131826629Y-83947000D01*
X131947914Y-83724959D01*
X131708389Y-83218866D01*
X131293423Y-82842959D01*
X130905039Y-82682096D01*
X130683000Y-82804085D01*
X130429000Y-82804085D01*
X130206961Y-82682096D01*
X129818577Y-82842959D01*
X129403611Y-83218866D01*
X129300986Y-83435703D01*
X129030698Y-83031189D01*
X128565151Y-82720120D01*
X128016000Y-82610887D01*
X127466849Y-82720120D01*
X127001302Y-83031189D01*
X126746000Y-83413275D01*
X126490698Y-83031189D01*
X126025151Y-82720120D01*
X125476000Y-82610887D01*
X124926849Y-82720120D01*
X124461302Y-83031189D01*
X124206000Y-83413275D01*
X123950698Y-83031189D01*
X123485151Y-82720120D01*
X122936000Y-82610887D01*
X122386849Y-82720120D01*
X121921302Y-83031189D01*
X121610233Y-83496736D01*
X121501000Y-84045887D01*
X121031000Y-84045887D01*
X121031000Y-76425887D01*
X121501000Y-76425887D01*
X121501000Y-76482113D01*
X121610233Y-77031264D01*
X121921302Y-77496811D01*
X122386849Y-77807880D01*
X122936000Y-77917113D01*
X123485151Y-77807880D01*
X123950698Y-77496811D01*
X124206000Y-77114725D01*
X124461302Y-77496811D01*
X124926849Y-77807880D01*
X125476000Y-77917113D01*
X126025151Y-77807880D01*
X126490698Y-77496811D01*
X126746000Y-77114725D01*
X127001302Y-77496811D01*
X127466849Y-77807880D01*
X128016000Y-77917113D01*
X128565151Y-77807880D01*
X129030698Y-77496811D01*
X129286000Y-77114725D01*
X129541302Y-77496811D01*
X129796000Y-77666995D01*
X129796000Y-79502000D01*
X129853852Y-79792839D01*
X130018599Y-80039401D01*
X133176878Y-83197680D01*
X133176838Y-83243167D01*
X133318883Y-83586943D01*
X133581673Y-83850192D01*
X133925201Y-83992838D01*
X134297167Y-83993162D01*
X134640943Y-83851117D01*
X134904192Y-83588327D01*
X135046838Y-83244799D01*
X135047162Y-82872833D01*
X134905117Y-82529057D01*
X134642327Y-82265808D01*
X134298799Y-82123162D01*
X134251923Y-82123121D01*
X131316000Y-79187198D01*
X131316000Y-77666995D01*
X131570698Y-77496811D01*
X131881767Y-77031264D01*
X131987381Y-76500302D01*
X146418856Y-76500302D01*
X146446638Y-77055368D01*
X146605603Y-77439143D01*
X146847787Y-77508608D01*
X147648395Y-76708000D01*
X146847787Y-75907392D01*
X146605603Y-75976857D01*
X146418856Y-76500302D01*
X131987381Y-76500302D01*
X131991000Y-76482113D01*
X131991000Y-76425887D01*
X131881767Y-75876736D01*
X131570698Y-75411189D01*
X131105151Y-75100120D01*
X130556000Y-74990887D01*
X130006849Y-75100120D01*
X129541302Y-75411189D01*
X129286000Y-75793275D01*
X129030698Y-75411189D01*
X128565151Y-75100120D01*
X128016000Y-74990887D01*
X127466849Y-75100120D01*
X127001302Y-75411189D01*
X126746000Y-75793275D01*
X126490698Y-75411189D01*
X126025151Y-75100120D01*
X125476000Y-74990887D01*
X124926849Y-75100120D01*
X124461302Y-75411189D01*
X124206000Y-75793275D01*
X123950698Y-75411189D01*
X123485151Y-75100120D01*
X122936000Y-74990887D01*
X122386849Y-75100120D01*
X121921302Y-75411189D01*
X121610233Y-75876736D01*
X121501000Y-76425887D01*
X121031000Y-76425887D01*
X121031000Y-74803000D01*
X148717000Y-74803000D01*
X148717000Y-75639392D01*
X148717000Y-75639392D01*
G37*
X148717000Y-75639392D02*
X148628607Y-75727785D01*
X148559143Y-75485603D01*
X148035698Y-75298856D01*
X147480632Y-75326638D01*
X147096857Y-75485603D01*
X147027392Y-75727787D01*
X147828000Y-76528395D01*
X147842143Y-76514253D01*
X148021748Y-76693858D01*
X148007605Y-76708000D01*
X148021748Y-76722143D01*
X147842143Y-76901748D01*
X147828000Y-76887605D01*
X147027392Y-77688213D01*
X147096857Y-77930397D01*
X147237318Y-77980509D01*
X147037697Y-78062990D01*
X146644371Y-78455630D01*
X146431243Y-78968900D01*
X146430758Y-79524661D01*
X146642990Y-80038303D01*
X147035630Y-80431629D01*
X147548900Y-80644757D01*
X148104661Y-80645242D01*
X148618303Y-80433010D01*
X148717000Y-80334485D01*
X148717000Y-108077000D01*
X121031000Y-108077000D01*
X121031000Y-93726000D01*
X122606560Y-93726000D01*
X122606560Y-98806000D01*
X122650838Y-99041317D01*
X122789910Y-99257441D01*
X123002110Y-99402431D01*
X123254000Y-99453440D01*
X124524000Y-99453440D01*
X124759317Y-99409162D01*
X124975441Y-99270090D01*
X125120431Y-99057890D01*
X125171440Y-98806000D01*
X125171440Y-98060000D01*
X125204000Y-98060000D01*
X125494839Y-98002148D01*
X125741401Y-97837401D01*
X127256000Y-96322802D01*
X127256000Y-101346000D01*
X127313852Y-101636839D01*
X127478599Y-101883401D01*
X130526599Y-104931401D01*
X130773161Y-105096148D01*
X131064000Y-105154000D01*
X138430000Y-105154000D01*
X138720839Y-105096148D01*
X138967401Y-104931401D01*
X144713494Y-99185308D01*
X144759910Y-99257441D01*
X144972110Y-99402431D01*
X145224000Y-99453440D01*
X146494000Y-99453440D01*
X146729317Y-99409162D01*
X146945441Y-99270090D01*
X147090431Y-99057890D01*
X147141440Y-98806000D01*
X147141440Y-93726000D01*
X147097162Y-93490683D01*
X146958090Y-93274559D01*
X146745890Y-93129569D01*
X146494000Y-93078560D01*
X145224000Y-93078560D01*
X144988683Y-93122838D01*
X144772559Y-93261910D01*
X144627569Y-93474110D01*
X144576560Y-93726000D01*
X144576560Y-97172638D01*
X138115198Y-103634000D01*
X131378802Y-103634000D01*
X128776000Y-101031198D01*
X128776000Y-96551750D01*
X132259000Y-96551750D01*
X132259000Y-98372310D01*
X132355673Y-98605699D01*
X132534302Y-98784327D01*
X132767691Y-98881000D01*
X134588250Y-98881000D01*
X134747000Y-98722250D01*
X134747000Y-96393000D01*
X135001000Y-96393000D01*
X135001000Y-98722250D01*
X135159750Y-98881000D01*
X136980309Y-98881000D01*
X137213698Y-98784327D01*
X137392327Y-98605699D01*
X137489000Y-98372310D01*
X137489000Y-96551750D01*
X137330250Y-96393000D01*
X135001000Y-96393000D01*
X134747000Y-96393000D01*
X132417750Y-96393000D01*
X132259000Y-96551750D01*
X128776000Y-96551750D01*
X128776000Y-94802802D01*
X129171680Y-94407122D01*
X129217167Y-94407162D01*
X129560943Y-94265117D01*
X129666554Y-94159690D01*
X132259000Y-94159690D01*
X132259000Y-95980250D01*
X132417750Y-96139000D01*
X134747000Y-96139000D01*
X134747000Y-93809750D01*
X135001000Y-93809750D01*
X135001000Y-96139000D01*
X137330250Y-96139000D01*
X137489000Y-95980250D01*
X137489000Y-94159690D01*
X137392327Y-93926301D01*
X137213698Y-93747673D01*
X136980309Y-93651000D01*
X135159750Y-93651000D01*
X135001000Y-93809750D01*
X134747000Y-93809750D01*
X134588250Y-93651000D01*
X132767691Y-93651000D01*
X132534302Y-93747673D01*
X132355673Y-93926301D01*
X132259000Y-94159690D01*
X129666554Y-94159690D01*
X129824192Y-94002327D01*
X129966838Y-93658799D01*
X129967162Y-93286833D01*
X129825117Y-92943057D01*
X129562327Y-92679808D01*
X129218799Y-92537162D01*
X128846833Y-92536838D01*
X128503057Y-92678883D01*
X128239808Y-92941673D01*
X128097162Y-93285201D01*
X128097121Y-93332077D01*
X125171440Y-96257758D01*
X125171440Y-93726000D01*
X125127162Y-93490683D01*
X124988090Y-93274559D01*
X124775890Y-93129569D01*
X124524000Y-93078560D01*
X123254000Y-93078560D01*
X123018683Y-93122838D01*
X122802559Y-93261910D01*
X122657569Y-93474110D01*
X122606560Y-93726000D01*
X121031000Y-93726000D01*
X121031000Y-84045887D01*
X121501000Y-84045887D01*
X121501000Y-84102113D01*
X121610233Y-84651264D01*
X121921302Y-85116811D01*
X122386849Y-85427880D01*
X122936000Y-85537113D01*
X123485151Y-85427880D01*
X123950698Y-85116811D01*
X124206000Y-84734725D01*
X124461302Y-85116811D01*
X124926849Y-85427880D01*
X125476000Y-85537113D01*
X126025151Y-85427880D01*
X126490698Y-85116811D01*
X126746000Y-84734725D01*
X127001302Y-85116811D01*
X127466849Y-85427880D01*
X128016000Y-85537113D01*
X128565151Y-85427880D01*
X129030698Y-85116811D01*
X129300986Y-84712297D01*
X129403611Y-84929134D01*
X129818577Y-85305041D01*
X130206961Y-85465904D01*
X130429000Y-85343915D01*
X130429000Y-84201000D01*
X130683000Y-84201000D01*
X130683000Y-85343915D01*
X130905039Y-85465904D01*
X131293423Y-85305041D01*
X131708389Y-84929134D01*
X131947914Y-84423041D01*
X131826629Y-84201000D01*
X130683000Y-84201000D01*
X130429000Y-84201000D01*
X130409000Y-84201000D01*
X130409000Y-83947000D01*
X130429000Y-83947000D01*
X130429000Y-82804085D01*
X130683000Y-82804085D01*
X130683000Y-83947000D01*
X131826629Y-83947000D01*
X131947914Y-83724959D01*
X131708389Y-83218866D01*
X131293423Y-82842959D01*
X130905039Y-82682096D01*
X130683000Y-82804085D01*
X130429000Y-82804085D01*
X130206961Y-82682096D01*
X129818577Y-82842959D01*
X129403611Y-83218866D01*
X129300986Y-83435703D01*
X129030698Y-83031189D01*
X128565151Y-82720120D01*
X128016000Y-82610887D01*
X127466849Y-82720120D01*
X127001302Y-83031189D01*
X126746000Y-83413275D01*
X126490698Y-83031189D01*
X126025151Y-82720120D01*
X125476000Y-82610887D01*
X124926849Y-82720120D01*
X124461302Y-83031189D01*
X124206000Y-83413275D01*
X123950698Y-83031189D01*
X123485151Y-82720120D01*
X122936000Y-82610887D01*
X122386849Y-82720120D01*
X121921302Y-83031189D01*
X121610233Y-83496736D01*
X121501000Y-84045887D01*
X121031000Y-84045887D01*
X121031000Y-76425887D01*
X121501000Y-76425887D01*
X121501000Y-76482113D01*
X121610233Y-77031264D01*
X121921302Y-77496811D01*
X122386849Y-77807880D01*
X122936000Y-77917113D01*
X123485151Y-77807880D01*
X123950698Y-77496811D01*
X124206000Y-77114725D01*
X124461302Y-77496811D01*
X124926849Y-77807880D01*
X125476000Y-77917113D01*
X126025151Y-77807880D01*
X126490698Y-77496811D01*
X126746000Y-77114725D01*
X127001302Y-77496811D01*
X127466849Y-77807880D01*
X128016000Y-77917113D01*
X128565151Y-77807880D01*
X129030698Y-77496811D01*
X129286000Y-77114725D01*
X129541302Y-77496811D01*
X129796000Y-77666995D01*
X129796000Y-79502000D01*
X129853852Y-79792839D01*
X130018599Y-80039401D01*
X133176878Y-83197680D01*
X133176838Y-83243167D01*
X133318883Y-83586943D01*
X133581673Y-83850192D01*
X133925201Y-83992838D01*
X134297167Y-83993162D01*
X134640943Y-83851117D01*
X134904192Y-83588327D01*
X135046838Y-83244799D01*
X135047162Y-82872833D01*
X134905117Y-82529057D01*
X134642327Y-82265808D01*
X134298799Y-82123162D01*
X134251923Y-82123121D01*
X131316000Y-79187198D01*
X131316000Y-77666995D01*
X131570698Y-77496811D01*
X131881767Y-77031264D01*
X131987381Y-76500302D01*
X146418856Y-76500302D01*
X146446638Y-77055368D01*
X146605603Y-77439143D01*
X146847787Y-77508608D01*
X147648395Y-76708000D01*
X146847787Y-75907392D01*
X146605603Y-75976857D01*
X146418856Y-76500302D01*
X131987381Y-76500302D01*
X131991000Y-76482113D01*
X131991000Y-76425887D01*
X131881767Y-75876736D01*
X131570698Y-75411189D01*
X131105151Y-75100120D01*
X130556000Y-74990887D01*
X130006849Y-75100120D01*
X129541302Y-75411189D01*
X129286000Y-75793275D01*
X129030698Y-75411189D01*
X128565151Y-75100120D01*
X128016000Y-74990887D01*
X127466849Y-75100120D01*
X127001302Y-75411189D01*
X126746000Y-75793275D01*
X126490698Y-75411189D01*
X126025151Y-75100120D01*
X125476000Y-74990887D01*
X124926849Y-75100120D01*
X124461302Y-75411189D01*
X124206000Y-75793275D01*
X123950698Y-75411189D01*
X123485151Y-75100120D01*
X122936000Y-74990887D01*
X122386849Y-75100120D01*
X121921302Y-75411189D01*
X121610233Y-75876736D01*
X121501000Y-76425887D01*
X121031000Y-76425887D01*
X121031000Y-74803000D01*
X148717000Y-74803000D01*
X148717000Y-75639392D01*
M02*
