G04 #@! TF.FileFunction,Legend,Top*
%FSLAX46Y46*%
G04 Gerber Fmt 4.6, Leading zero omitted, Abs format (unit mm)*
G04 Created by KiCad (PCBNEW 4.0.5+dfsg1-4) date Thu Mar 22 11:03:11 2018*
%MOMM*%
%LPD*%
G01*
G04 APERTURE LIST*
%ADD10C,0.100000*%
%ADD11C,0.300000*%
%ADD12C,0.200000*%
%ADD13C,0.150000*%
G04 APERTURE END LIST*
D10*
D11*
X133826572Y-84919429D02*
X133898001Y-84848000D01*
X134040858Y-84776571D01*
X134398001Y-84776571D01*
X134540858Y-84848000D01*
X134612287Y-84919429D01*
X134683715Y-85062286D01*
X134683715Y-85205143D01*
X134612287Y-85419429D01*
X133755144Y-86276571D01*
X134683715Y-86276571D01*
X135612286Y-84776571D02*
X135755143Y-84776571D01*
X135898000Y-84848000D01*
X135969429Y-84919429D01*
X136040858Y-85062286D01*
X136112286Y-85348000D01*
X136112286Y-85705143D01*
X136040858Y-85990857D01*
X135969429Y-86133714D01*
X135898000Y-86205143D01*
X135755143Y-86276571D01*
X135612286Y-86276571D01*
X135469429Y-86205143D01*
X135398000Y-86133714D01*
X135326572Y-85990857D01*
X135255143Y-85705143D01*
X135255143Y-85348000D01*
X135326572Y-85062286D01*
X135398000Y-84919429D01*
X135469429Y-84848000D01*
X135612286Y-84776571D01*
X137540857Y-86276571D02*
X136683714Y-86276571D01*
X137112286Y-86276571D02*
X137112286Y-84776571D01*
X136969429Y-84990857D01*
X136826571Y-85133714D01*
X136683714Y-85205143D01*
X138398000Y-85419429D02*
X138255142Y-85348000D01*
X138183714Y-85276571D01*
X138112285Y-85133714D01*
X138112285Y-85062286D01*
X138183714Y-84919429D01*
X138255142Y-84848000D01*
X138398000Y-84776571D01*
X138683714Y-84776571D01*
X138826571Y-84848000D01*
X138898000Y-84919429D01*
X138969428Y-85062286D01*
X138969428Y-85133714D01*
X138898000Y-85276571D01*
X138826571Y-85348000D01*
X138683714Y-85419429D01*
X138398000Y-85419429D01*
X138255142Y-85490857D01*
X138183714Y-85562286D01*
X138112285Y-85705143D01*
X138112285Y-85990857D01*
X138183714Y-86133714D01*
X138255142Y-86205143D01*
X138398000Y-86276571D01*
X138683714Y-86276571D01*
X138826571Y-86205143D01*
X138898000Y-86133714D01*
X138969428Y-85990857D01*
X138969428Y-85705143D01*
X138898000Y-85562286D01*
X138826571Y-85490857D01*
X138683714Y-85419429D01*
X134323144Y-82950857D02*
X133823144Y-82950857D01*
X133823144Y-83736571D02*
X133823144Y-82236571D01*
X134537430Y-82236571D01*
X135751715Y-83736571D02*
X135751715Y-82950857D01*
X135680286Y-82808000D01*
X135537429Y-82736571D01*
X135251715Y-82736571D01*
X135108858Y-82808000D01*
X135751715Y-83665143D02*
X135608858Y-83736571D01*
X135251715Y-83736571D01*
X135108858Y-83665143D01*
X135037429Y-83522286D01*
X135037429Y-83379429D01*
X135108858Y-83236571D01*
X135251715Y-83165143D01*
X135608858Y-83165143D01*
X135751715Y-83093714D01*
X137108858Y-83665143D02*
X136966001Y-83736571D01*
X136680287Y-83736571D01*
X136537429Y-83665143D01*
X136466001Y-83593714D01*
X136394572Y-83450857D01*
X136394572Y-83022286D01*
X136466001Y-82879429D01*
X136537429Y-82808000D01*
X136680287Y-82736571D01*
X136966001Y-82736571D01*
X137108858Y-82808000D01*
X138323143Y-83665143D02*
X138180286Y-83736571D01*
X137894572Y-83736571D01*
X137751715Y-83665143D01*
X137680286Y-83522286D01*
X137680286Y-82950857D01*
X137751715Y-82808000D01*
X137894572Y-82736571D01*
X138180286Y-82736571D01*
X138323143Y-82808000D01*
X138394572Y-82950857D01*
X138394572Y-83093714D01*
X137680286Y-83236571D01*
X139251715Y-83736571D02*
X139108857Y-83665143D01*
X139037429Y-83522286D01*
X139037429Y-82236571D01*
X140394571Y-83665143D02*
X140251714Y-83736571D01*
X139966000Y-83736571D01*
X139823143Y-83665143D01*
X139751714Y-83522286D01*
X139751714Y-82950857D01*
X139823143Y-82808000D01*
X139966000Y-82736571D01*
X140251714Y-82736571D01*
X140394571Y-82808000D01*
X140466000Y-82950857D01*
X140466000Y-83093714D01*
X139751714Y-83236571D01*
X141037428Y-83665143D02*
X141180285Y-83736571D01*
X141466000Y-83736571D01*
X141608857Y-83665143D01*
X141680285Y-83522286D01*
X141680285Y-83450857D01*
X141608857Y-83308000D01*
X141466000Y-83236571D01*
X141251714Y-83236571D01*
X141108857Y-83165143D01*
X141037428Y-83022286D01*
X141037428Y-82950857D01*
X141108857Y-82808000D01*
X141251714Y-82736571D01*
X141466000Y-82736571D01*
X141608857Y-82808000D01*
X142251714Y-83665143D02*
X142394571Y-83736571D01*
X142680286Y-83736571D01*
X142823143Y-83665143D01*
X142894571Y-83522286D01*
X142894571Y-83450857D01*
X142823143Y-83308000D01*
X142680286Y-83236571D01*
X142466000Y-83236571D01*
X142323143Y-83165143D01*
X142251714Y-83022286D01*
X142251714Y-82950857D01*
X142323143Y-82808000D01*
X142466000Y-82736571D01*
X142680286Y-82736571D01*
X142823143Y-82808000D01*
X143323143Y-82736571D02*
X143894572Y-82736571D01*
X143537429Y-82236571D02*
X143537429Y-83522286D01*
X143608857Y-83665143D01*
X143751715Y-83736571D01*
X143894572Y-83736571D01*
X144966000Y-83665143D02*
X144823143Y-83736571D01*
X144537429Y-83736571D01*
X144394572Y-83665143D01*
X144323143Y-83522286D01*
X144323143Y-82950857D01*
X144394572Y-82808000D01*
X144537429Y-82736571D01*
X144823143Y-82736571D01*
X144966000Y-82808000D01*
X145037429Y-82950857D01*
X145037429Y-83093714D01*
X144323143Y-83236571D01*
X146323143Y-83665143D02*
X146180286Y-83736571D01*
X145894572Y-83736571D01*
X145751714Y-83665143D01*
X145680286Y-83593714D01*
X145608857Y-83450857D01*
X145608857Y-83022286D01*
X145680286Y-82879429D01*
X145751714Y-82808000D01*
X145894572Y-82736571D01*
X146180286Y-82736571D01*
X146323143Y-82808000D01*
X146966000Y-83736571D02*
X146966000Y-82236571D01*
X147608857Y-83736571D02*
X147608857Y-82950857D01*
X147537428Y-82808000D01*
X147394571Y-82736571D01*
X147180286Y-82736571D01*
X147037428Y-82808000D01*
X146966000Y-82879429D01*
D12*
X139763619Y-96480381D02*
X139954096Y-96480381D01*
X140049334Y-96528000D01*
X140144572Y-96623238D01*
X140192191Y-96813714D01*
X140192191Y-97147048D01*
X140144572Y-97337524D01*
X140049334Y-97432762D01*
X139954096Y-97480381D01*
X139763619Y-97480381D01*
X139668381Y-97432762D01*
X139573143Y-97337524D01*
X139525524Y-97147048D01*
X139525524Y-96813714D01*
X139573143Y-96623238D01*
X139668381Y-96528000D01*
X139763619Y-96480381D01*
X140954096Y-96956571D02*
X140620762Y-96956571D01*
X140620762Y-97480381D02*
X140620762Y-96480381D01*
X141096953Y-96480381D01*
X141811239Y-96956571D02*
X141477905Y-96956571D01*
X141477905Y-97480381D02*
X141477905Y-96480381D01*
X141954096Y-96480381D01*
X128412952Y-96480381D02*
X128603429Y-96480381D01*
X128698667Y-96528000D01*
X128793905Y-96623238D01*
X128841524Y-96813714D01*
X128841524Y-97147048D01*
X128793905Y-97337524D01*
X128698667Y-97432762D01*
X128603429Y-97480381D01*
X128412952Y-97480381D01*
X128317714Y-97432762D01*
X128222476Y-97337524D01*
X128174857Y-97147048D01*
X128174857Y-96813714D01*
X128222476Y-96623238D01*
X128317714Y-96528000D01*
X128412952Y-96480381D01*
X129270095Y-97480381D02*
X129270095Y-96480381D01*
X129841524Y-97480381D01*
X129841524Y-96480381D01*
D11*
X131584286Y-110771714D02*
X131512857Y-110843143D01*
X131298571Y-110914571D01*
X131155714Y-110914571D01*
X130941429Y-110843143D01*
X130798571Y-110700286D01*
X130727143Y-110557429D01*
X130655714Y-110271714D01*
X130655714Y-110057429D01*
X130727143Y-109771714D01*
X130798571Y-109628857D01*
X130941429Y-109486000D01*
X131155714Y-109414571D01*
X131298571Y-109414571D01*
X131512857Y-109486000D01*
X131584286Y-109557429D01*
X132227143Y-109414571D02*
X132227143Y-110628857D01*
X132298571Y-110771714D01*
X132370000Y-110843143D01*
X132512857Y-110914571D01*
X132798571Y-110914571D01*
X132941429Y-110843143D01*
X133012857Y-110771714D01*
X133084286Y-110628857D01*
X133084286Y-109414571D01*
X133584286Y-109414571D02*
X134441429Y-109414571D01*
X134012858Y-110914571D02*
X134012858Y-109414571D01*
X135227143Y-109414571D02*
X135512857Y-109414571D01*
X135655715Y-109486000D01*
X135798572Y-109628857D01*
X135870000Y-109914571D01*
X135870000Y-110414571D01*
X135798572Y-110700286D01*
X135655715Y-110843143D01*
X135512857Y-110914571D01*
X135227143Y-110914571D01*
X135084286Y-110843143D01*
X134941429Y-110700286D01*
X134870000Y-110414571D01*
X134870000Y-109914571D01*
X134941429Y-109628857D01*
X135084286Y-109486000D01*
X135227143Y-109414571D01*
X136512858Y-109414571D02*
X136512858Y-110628857D01*
X136584286Y-110771714D01*
X136655715Y-110843143D01*
X136798572Y-110914571D01*
X137084286Y-110914571D01*
X137227144Y-110843143D01*
X137298572Y-110771714D01*
X137370001Y-110628857D01*
X137370001Y-109414571D01*
X137870001Y-109414571D02*
X138727144Y-109414571D01*
X138298573Y-110914571D02*
X138298573Y-109414571D01*
X131330286Y-72925714D02*
X131258857Y-72997143D01*
X131044571Y-73068571D01*
X130901714Y-73068571D01*
X130687429Y-72997143D01*
X130544571Y-72854286D01*
X130473143Y-72711429D01*
X130401714Y-72425714D01*
X130401714Y-72211429D01*
X130473143Y-71925714D01*
X130544571Y-71782857D01*
X130687429Y-71640000D01*
X130901714Y-71568571D01*
X131044571Y-71568571D01*
X131258857Y-71640000D01*
X131330286Y-71711429D01*
X131973143Y-71568571D02*
X131973143Y-72782857D01*
X132044571Y-72925714D01*
X132116000Y-72997143D01*
X132258857Y-73068571D01*
X132544571Y-73068571D01*
X132687429Y-72997143D01*
X132758857Y-72925714D01*
X132830286Y-72782857D01*
X132830286Y-71568571D01*
X133330286Y-71568571D02*
X134187429Y-71568571D01*
X133758858Y-73068571D02*
X133758858Y-71568571D01*
X134973143Y-71568571D02*
X135258857Y-71568571D01*
X135401715Y-71640000D01*
X135544572Y-71782857D01*
X135616000Y-72068571D01*
X135616000Y-72568571D01*
X135544572Y-72854286D01*
X135401715Y-72997143D01*
X135258857Y-73068571D01*
X134973143Y-73068571D01*
X134830286Y-72997143D01*
X134687429Y-72854286D01*
X134616000Y-72568571D01*
X134616000Y-72068571D01*
X134687429Y-71782857D01*
X134830286Y-71640000D01*
X134973143Y-71568571D01*
X136258858Y-71568571D02*
X136258858Y-72782857D01*
X136330286Y-72925714D01*
X136401715Y-72997143D01*
X136544572Y-73068571D01*
X136830286Y-73068571D01*
X136973144Y-72997143D01*
X137044572Y-72925714D01*
X137116001Y-72782857D01*
X137116001Y-71568571D01*
X137616001Y-71568571D02*
X138473144Y-71568571D01*
X138044573Y-73068571D02*
X138044573Y-71568571D01*
D13*
X120641000Y-83939000D02*
X121911000Y-83939000D01*
X120641000Y-76589000D02*
X121911000Y-76589000D01*
X132851000Y-76589000D02*
X131581000Y-76589000D01*
X132851000Y-83939000D02*
X131581000Y-83939000D01*
X120641000Y-83939000D02*
X120641000Y-76589000D01*
X132851000Y-83939000D02*
X132851000Y-76589000D01*
X121911000Y-83939000D02*
X121911000Y-84874000D01*
X123326000Y-107476000D02*
X126926000Y-107476000D01*
X123326000Y-105376000D02*
X126926000Y-105376000D01*
X125376000Y-106126000D02*
X125376000Y-106726000D01*
X125376000Y-106726000D02*
X125076000Y-106426000D01*
X125076000Y-106426000D02*
X125276000Y-106226000D01*
X125276000Y-106226000D02*
X125276000Y-106476000D01*
X125276000Y-106476000D02*
X125226000Y-106426000D01*
X124976000Y-105926000D02*
X124976000Y-106926000D01*
X125476000Y-106426000D02*
X125976000Y-106426000D01*
X124976000Y-106426000D02*
X125476000Y-105926000D01*
X125476000Y-105926000D02*
X125476000Y-106926000D01*
X125476000Y-106926000D02*
X124976000Y-106426000D01*
X142122000Y-107730000D02*
X145722000Y-107730000D01*
X142122000Y-105630000D02*
X145722000Y-105630000D01*
X144172000Y-106380000D02*
X144172000Y-106980000D01*
X144172000Y-106980000D02*
X143872000Y-106680000D01*
X143872000Y-106680000D02*
X144072000Y-106480000D01*
X144072000Y-106480000D02*
X144072000Y-106730000D01*
X144072000Y-106730000D02*
X144022000Y-106680000D01*
X143772000Y-106180000D02*
X143772000Y-107180000D01*
X144272000Y-106680000D02*
X144772000Y-106680000D01*
X143772000Y-106680000D02*
X144272000Y-106180000D01*
X144272000Y-106180000D02*
X144272000Y-107180000D01*
X144272000Y-107180000D02*
X143772000Y-106680000D01*
X142122000Y-88680000D02*
X145722000Y-88680000D01*
X142122000Y-86580000D02*
X145722000Y-86580000D01*
X144172000Y-87330000D02*
X144172000Y-87930000D01*
X144172000Y-87930000D02*
X143872000Y-87630000D01*
X143872000Y-87630000D02*
X144072000Y-87430000D01*
X144072000Y-87430000D02*
X144072000Y-87680000D01*
X144072000Y-87680000D02*
X144022000Y-87630000D01*
X143772000Y-87130000D02*
X143772000Y-88130000D01*
X144272000Y-87630000D02*
X144772000Y-87630000D01*
X143772000Y-87630000D02*
X144272000Y-87130000D01*
X144272000Y-87130000D02*
X144272000Y-88130000D01*
X144272000Y-88130000D02*
X143772000Y-87630000D01*
X123326000Y-88680000D02*
X126926000Y-88680000D01*
X123326000Y-86580000D02*
X126926000Y-86580000D01*
X125376000Y-87330000D02*
X125376000Y-87930000D01*
X125376000Y-87930000D02*
X125076000Y-87630000D01*
X125076000Y-87630000D02*
X125276000Y-87430000D01*
X125276000Y-87430000D02*
X125276000Y-87680000D01*
X125276000Y-87680000D02*
X125226000Y-87630000D01*
X124976000Y-87130000D02*
X124976000Y-88130000D01*
X125476000Y-87630000D02*
X125976000Y-87630000D01*
X124976000Y-87630000D02*
X125476000Y-87130000D01*
X125476000Y-87130000D02*
X125476000Y-88130000D01*
X125476000Y-88130000D02*
X124976000Y-87630000D01*
X126476000Y-103945000D02*
X124476000Y-103945000D01*
X124476000Y-101795000D02*
X126476000Y-101795000D01*
X145272000Y-104199000D02*
X143272000Y-104199000D01*
X143272000Y-102049000D02*
X145272000Y-102049000D01*
X124476000Y-90111000D02*
X126476000Y-90111000D01*
X126476000Y-92261000D02*
X124476000Y-92261000D01*
X145272000Y-92261000D02*
X143272000Y-92261000D01*
X143272000Y-90111000D02*
X145272000Y-90111000D01*
X134493000Y-77978000D02*
X134493000Y-80645000D01*
X134493000Y-80645000D02*
X147828000Y-80645000D01*
X147828000Y-80645000D02*
X147828000Y-80137000D01*
X134493000Y-77978000D02*
X134493000Y-75311000D01*
X134493000Y-75311000D02*
X147828000Y-75311000D01*
X147828000Y-75311000D02*
X147828000Y-75819000D01*
X139065000Y-95250000D02*
X139065000Y-98806000D01*
X139065000Y-98806000D02*
X130175000Y-98806000D01*
X130175000Y-98806000D02*
X130175000Y-95250000D01*
X130175000Y-95250000D02*
X139065000Y-95250000D01*
M02*
